# xmcd CD database file
#
# Track frame offsets:
#	150
#	18541
#	33551
#	56006
#	72720
#	88788
#	115339
#	130507
#	154620
#	171346
#
# Disc length: 2528 seconds
#
# Revision: 0
# Processed by: cddbd v1.5.2PL0 Copyright (c) Steve Scherf et al.
# Submitted via: CDex 1.70beta2
#
DISCID=8909de0a
DTITLE=Bernie Gibbs King - King
DYEAR=2008
DGENRE=Blues
TTITLE0=Dirt and Dust
TTITLE1=North Rim
TTITLE2=Highways of Nebraska
TTITLE3=Beautiful Angel
TTITLE4=Drinking with The Lord
TTITLE5=The Name That is Never Spoken
TTITLE6=It's Time for You to Come Home
TTITLE7=Road to Hell
TTITLE8=Big Fat Women
TTITLE9=Every Little Diamond
EXTD=YEAR: 2008
EXTT0=
EXTT1=
EXTT2=
EXTT3=
EXTT4=
EXTT5=
EXTT6=
EXTT7=
EXTT8=
EXTT9=
PLAYORDER=
